<?xml version="1.0" encoding="UTF-8"?>
<!DOCTYPE svg PUBLIC "-//W3C//DTD SVG 1.1//EN" "http://www.w3.org/Graphics/SVG/1.1/DTD/svg11.dtd">
<!-- Creator: CorelDRAW 2021 (64 Bit) -->
<svg xmlns="http://www.w3.org/2000/svg" xml:space="preserve" width="297mm" height="210mm" version="1.1" style="shape-rendering:geometricPrecision; text-rendering:geometricPrecision; image-rendering:optimizeQuality; fill-rule:evenodd; clip-rule:evenodd"
viewBox="0 0 29700 21000"
 xmlns:xlink="http://www.w3.org/1999/xlink"
 xmlns:xodm="http://www.corel.com/coreldraw/odm/2003">
 <defs>
  <style type="text/css">
   <![CDATA[
    .fil0 {fill:white;fill-rule:nonzero}
   ]]>
  </style>
 </defs>
 <g id="Camada_x0020_1">
  <metadata id="CorelCorpID_0Corel-Layer"/>
  <path id="teamspeak-brands.svg" class="fil0" d="M17928.71 14417.74c1318.81,-105.21 1789.55,-1727.47 1577.55,-2864.83 -329.05,-1601.88 -2456.13,-216.95 -3179.49,207.91 -2455.33,1414.66 -1130.64,2589.59 -283.5,2672.06l1885.44 -15.14z"/>
  <path id="teamspeak-brands.svg_0" class="fil0" d="M23265.26 10052.82c-10.84,-683.06 -310.81,-1207.09 -939.65,-1525.13 -104.82,-46.99 -180.7,-97.58 -213.23,-231.3 -217.78,-1223.55 -719.75,-2384.66 -1460.44,-3382.72 -39.76,-54.2 -126.48,-115.65 -79.5,-180.7 307.19,-415.61 -10.84,-650.53 -252.98,-881.82 -2609.11,-2522.63 -5648.4,-3251.47 -9117.88,-2186.53 -1449.24,444.52 -2670.78,1286.6 -3686.32,2435.86 -144.56,155.41 -242.13,328.87 -108.43,524.04 108.43,144.56 46.99,224.07 -36.14,336.11 -715.58,1001.44 -1199.86,2106.99 -1420.31,3314.43 -25.31,155.41 -104.81,216.84 -231.31,281.9 -513.18,252.99 -813.15,668.59 -899.89,1228.78l-28.91 957.36 0 755.33c0,1113.13 758.95,1821.48 1872.07,1770.89 278.28,-10.84 422.84,-155.41 433.69,-415.62 72.28,-2800.87 -86.73,-3447.79 133.72,-4546.46 889.05,-4499.5 6028.22,-6935 10039.82,-4752.48 2388.87,1323.1 3628.49,3383.1 3697.15,6122.2 28.92,1019.15 0,2041.93 0,3057.48 0,252.98 79.51,451.76 339.72,513.19 871,180.71 1778.11,-433.69 1922.68,-1326.35 104.81,-618.01 36.14,-1246.85 36.14,-1868.46z"/>
  <path id="teamspeak-brands.svg_1" class="fil0" d="M21024.55 14476.4c-33.85,-28.12 -76.53,-43.55 -120.56,-43.55 -81.69,0 -154.14,52.63 -179.4,130.29 -289.12,917.97 -1615.48,4065.8 -6219.76,4391.07 -5410.22,379.47 2902.07,1575.72 5254.82,-231.31 820.38,-628.83 1720.28,-1264.91 1684.14,-3086.38 -14.46,-365.03 -177.1,-964.6 -419.23,-1160.11l-0.01 -0.01z"/>
  <path id="teamspeak-brands.svg_2" class="fil0" d="M13671.32 13455.66c82.33,-445.38 -444.43,-1079.87 -1188.36,-1748.33 -762.19,-686.37 -1755.92,-1395.72 -2307.92,-1661.31 -788.52,-425.88 -1507.63,-50.08 -1665.07,836.96 -171.29,948.62 18.45,1857.52 550.54,2665.44 374.17,556.48 926.07,811.23 1577.02,851.75 419.43,17.52 1898.07,60.66 2229.4,-58.28 428.5,-159.67 722.15,-433.65 804.39,-886.25l0 0.02z"/>
 </g>
</svg>
